<svg preserveAspectRatio="xMidYMid meet" viewBox="44.32835820895522 17.92 213.58208955223878 202.496" xmlns="http://www.w3.org/2000/svg" version="1.0" style="max-height: 500px" width="213.58208955223878" height="202.496">  <g stroke="none" fill="#ffffff" transform="translate(0.000000,224.000000) scale(0.100000,-0.100000)"> <path d="M1678 2020 c-44 -50 -91 -137 -83 -150 3 -5 14 -9 23 -9 15 1 15 2 0 6 -24 6 -24 6 18 74 45 75 54 77 13 4 -17 -31 -30 -58 -27 -60 2 -2 24 -13 48 -25 44 -20 43 -21 -10 -6 -31 9 103 -67 185 -105 34 -15 77 -30 97 -34 35 -7 37 -6 58 37 12 23 40 66 61 95 21 29 35 54 31 57 -4 2 -39 12 -77 21 -38 8 -92 28 -119 44 -28 15 -71 39 -96 53 -76 44 -84 44 -122 -2z m75 16 c18 -7 60 -31 94 -53 39 -26 94 -49 145 -63 46 -12 84 -23 86 -25 2 -2 -13 -25 -34 -52 -20 -26 -43 -63 -51 -81 -7 -18 -19 -35 -26 -38 -19 -7 -121 31 -194 72 -93 52 -71 52 28 0 110 -58 158 -73 170 -55 16 26 9 30 -33 24 -39 -6 -54 0 -158 53 -131 68 -148 89 -110 142 12 16 18 35 15 41 -4 5 1 19 11 30 20 23 17 22 57 5z"/> <path d="M1704 2018 l-19 -21 38 7 c33 6 46 2 110 -37 40 -24 97 -52 126 -62 29 -9 55 -24 58 -33 4 -8 -3 -32 -15 -53 -35 -61 -25 -57 18 7 45 66 48 61 -50 88 -30 8 -82 32 -115 52 -33 20 -76 44 -96 55 -36 18 -37 18 -55 -3z"/> <path d="M1703 1963 c-19 -7 -16 -50 3 -57 22 -9 46 13 42 38 -3 21 -22 29 -45 19z"/> <path d="M1781 1914 c-27 -34 -26 -46 2 -72 32 -30 71 -28 96 4 27 34 26 40 -4 69 -32 33 -68 32 -94 -1z m69 -20 c11 -12 11 -18 -2 -30 -16 -16 -48 -9 -48 10 0 13 20 36 31 36 4 0 12 -7 19 -16z"/> <path d="M1921 1846 c-20 -24 -6 -48 26 -44 22 2 28 8 28 28 0 30 -35 40 -54 16z"/> <path d="M1173 1675 c-79 -22 -131 -52 -189 -110 -45 -44 -56 -64 -79 -136 -14 -46 -25 -98 -23 -115 2 -24 -7 -41 -36 -75 -21 -24 -47 -62 -58 -83 -19 -38 -20 -40 -2 -53 11 -8 46 -13 87 -13 67 0 69 -1 54 -18 -22 -25 -21 -29 8 -36 13 -3 31 -19 39 -35 14 -26 13 -29 -7 -49 -12 -12 -16 -22 -10 -22 6 0 16 7 23 15 10 13 17 12 51 -5 21 -11 48 -20 60 -20 17 0 20 -4 14 -22 -26 -89 -45 -168 -45 -198 0 -19 -9 -81 -18 -136 l-17 -102 -35 19 c-68 35 -119 34 -281 -9 -42 -11 -47 -8 -72 31 -27 41 -56 52 -99 34 -63 -26 -87 -120 -48 -184 37 -62 134 -67 258 -14 109 46 122 47 191 12 60 -31 114 -38 170 -22 16 4 41 -3 80 -22 l57 -28 119 12 c66 6 157 8 202 4 98 -8 137 6 178 66 26 37 27 40 11 64 -9 14 -22 25 -29 25 -9 0 -21 36 -35 102 -12 56 -20 104 -18 106 2 2 31 -2 65 -9 59 -13 60 -12 85 13 25 27 129 64 356 125 l104 28 34 80 c130 308 272 672 267 683 -5 12 -35 13 -193 7 -103 -5 -198 -9 -212 -10 -14 -1 -47 -3 -73 -4 -44 -1 -49 -3 -61 -33 -7 -18 -71 -180 -142 -361 -103 -261 -132 -326 -144 -321 -8 4 -43 17 -78 29 -34 12 -81 35 -103 50 l-41 27 48 28 c27 15 69 49 92 74 24 26 48 44 54 40 6 -4 8 1 4 13 -10 32 10 74 31 66 15 -5 16 -3 6 8 -7 7 -13 21 -13 31 0 10 -7 21 -15 24 -8 4 -15 11 -15 16 0 7 21 8 58 4 40 -5 53 -4 42 3 -8 6 -36 11 -61 11 -40 0 -49 4 -64 27 -17 26 -17 27 0 38 52 31 105 78 105 94 0 28 -19 39 -107 59 -68 16 -90 26 -129 61 -127 112 -266 152 -401 116z m242 -34 c47 -21 164 -101 165 -112 0 -4 -12 -9 -27 -12 -188 -38 -448 -112 -484 -138 -15 -10 -32 -19 -37 -19 -6 0 -14 -5 -17 -11 -4 -5 10 -3 32 7 179 77 502 154 582 139 l36 -7 -25 -14 c-30 -16 -18 -18 32 -4 28 8 49 7 80 -2 l43 -12 -90 -6 c-53 -4 -93 -2 -96 3 -8 12 -158 -9 -203 -28 -17 -7 -71 -25 -121 -40 -162 -49 -317 -115 -365 -158 -51 -44 -107 -77 -95 -55 8 13 27 35 89 102 35 37 43 62 11 36 -13 -11 -15 -9 -15 12 0 33 30 118 41 118 5 0 9 15 9 34 0 58 125 160 227 186 58 14 175 5 228 -19z m1155 -70 c0 -5 -52 -137 -116 -293 -63 -156 -127 -313 -141 -349 l-25 -66 -151 -7 c-84 -3 -187 -9 -230 -13 l-78 -6 22 54 c28 69 191 481 229 577 15 40 24 72 18 70 -6 -2 -73 -161 -149 -353 l-138 -350 82 -3 c45 -1 149 1 230 5 82 5 151 5 153 1 3 -4 -5 -10 -18 -12 -35 -8 -430 -25 -444 -19 -26 10 -19 45 36 184 31 79 89 227 129 329 39 102 76 195 81 207 10 25 47 30 320 42 91 5 171 9 178 9 6 1 12 -2 12 -7z m-922 -205 c52 -79 59 -96 39 -96 -15 0 -68 -39 -54 -40 4 0 22 7 40 16 21 12 32 13 35 5 2 -6 10 -11 18 -11 8 0 14 -7 14 -15 0 -10 -11 -15 -35 -15 -19 0 -35 -5 -35 -11 0 -7 11 -8 30 -4 32 7 38 -2 20 -36 -9 -15 -15 -17 -30 -9 -23 12 -30 13 -30 1 0 -5 9 -11 20 -14 11 -3 20 -10 20 -16 0 -21 -90 -100 -144 -126 -30 -15 -69 -37 -87 -51 -25 -18 -41 -23 -59 -18 -14 3 -84 6 -157 5 -132 -2 -192 7 -228 33 -18 13 -16 15 26 36 24 13 39 25 33 27 -7 2 -27 -5 -45 -16 -42 -26 -49 -26 -49 -2 0 20 28 35 95 50 l40 9 -37 1 c-21 1 -56 -6 -78 -15 -41 -17 -75 -13 -68 8 6 16 65 36 111 37 20 1 37 6 37 11 0 11 -64 5 -112 -10 -27 -9 -33 -3 -29 23 1 4 -3 25 -8 47 l-9 41 51 26 c138 70 340 139 517 177 103 23 101 23 148 -48z m102 55 c0 -16 -30 -41 -49 -41 -22 0 -45 25 -36 40 8 12 85 14 85 1z m-834 -275 c-6 -23 -11 -26 -51 -26 -25 0 -45 4 -45 9 0 16 84 61 94 51 5 -5 6 -20 2 -34z m598 -251 c5 -29 3 -52 -5 -67 -13 -22 -13 -22 -19 14 -4 20 -12 44 -20 52 -10 13 -10 19 0 31 22 27 37 17 44 -30z m89 0 c39 -20 47 -39 21 -49 -25 -10 -30 -7 -44 22 -7 15 -15 22 -17 15 -2 -6 3 -25 11 -42 15 -29 15 -31 -5 -42 -29 -15 -40 4 -33 56 7 53 12 67 22 63 4 -2 24 -12 45 -23z m-193 10 c0 -3 -6 -21 -14 -40 -12 -27 -19 -32 -35 -28 -21 5 -61 48 -61 64 0 5 25 9 55 9 30 0 55 -2 55 -5z m-125 -25 c22 -24 1 -28 -29 -5 -11 8 -24 15 -29 15 -18 0 7 -22 53 -45 l48 -24 -24 -47 c-15 -31 -24 -65 -24 -96 0 -26 -5 -48 -10 -48 -6 0 -29 9 -51 21 -23 11 -43 18 -46 16 -8 -9 82 -57 106 -57 12 0 36 -7 53 -16 24 -12 36 -13 54 -5 23 10 24 9 24 -32 0 -59 -18 -117 -36 -117 -8 0 -25 -7 -38 -16 -17 -11 -43 -14 -88 -12 -34 1 -82 -1 -105 -6 -38 -7 -45 -5 -69 19 -19 19 -24 32 -20 48 11 37 34 178 41 249 4 37 15 84 26 104 10 21 19 44 19 51 0 11 15 14 106 21 11 1 29 -7 39 -18z m177 -4 c6 -14 8 -32 4 -41 -5 -14 -8 -14 -29 0 -18 11 -23 22 -19 40 6 32 29 32 44 1z m223 -51 c-22 -8 -49 -14 -60 -14 -20 0 -20 0 -1 14 11 8 38 15 60 14 l41 -1 -40 -13z m95 -10 c0 -8 -1 -15 -3 -15 -16 0 -401 -101 -417 -110 -16 -9 -22 -8 -26 5 -4 9 -5 17 -3 19 4 4 211 61 277 76 17 4 35 4 38 -1 8 -14 24 -10 24 6 0 8 7 15 15 15 8 0 15 -4 15 -10 0 -5 5 -10 10 -10 6 0 10 6 10 14 0 15 15 24 43 25 9 1 17 -6 17 -14z m-407 -40 c-20 -25 -41 -45 -45 -45 -12 0 -10 -48 2 -55 6 -3 10 -15 10 -25 0 -26 15 -33 41 -19 17 8 20 8 17 -2 -16 -47 -94 -26 -104 28 -7 36 17 116 43 145 9 10 29 18 45 18 l29 0 -38 -45z m133 25 c8 0 14 -4 14 -9 0 -7 -118 -41 -144 -41 -5 0 1 11 13 24 23 24 61 37 89 29 8 -1 20 -3 28 -3z m567 -25 c-50 -13 -131 -37 -180 -54 -84 -28 -98 -30 -296 -34 -114 -2 -206 -3 -205 -1 2 1 86 24 188 50 188 49 264 58 510 62 l75 1 -92 -24z m-683 -115 c-19 -13 -30 -13 -30 0 0 6 10 10 23 10 18 0 19 -2 7 -10z m81 -176 l31 -29 20 25 c18 22 20 34 14 108 -4 50 -2 82 3 82 6 0 12 -15 15 -32 3 -18 12 -74 20 -124 9 -51 16 -104 16 -120 l0 -27 23 20 c77 71 169 57 116 -18 -35 -50 -66 -59 -183 -56 -58 1 -106 5 -106 8 0 3 9 14 20 24 27 25 24 76 -6 89 -19 9 -22 21 -28 106 -4 53 -3 105 1 116 5 12 9 -11 11 -62 3 -75 5 -83 33 -110z m43 159 c16 -86 16 -119 1 -138 -15 -20 -15 -20 -40 8 -21 24 -25 38 -25 93 l0 64 29 0 c24 0 30 -5 35 -27z m140 -14 c4 -22 4 -44 1 -49 -3 -4 2 -21 10 -36 26 -51 11 -94 -33 -94 -20 0 -22 5 -42 130 -4 30 -11 63 -15 73 -6 14 -1 17 33 17 38 0 40 -1 46 -41z m-1059 -105 c13 -5 45 -53 45 -68 0 -2 -8 -7 -17 -9 -10 -3 -4 -5 13 -6 17 0 54 6 84 15 29 8 61 13 71 11 11 -3 17 -2 14 3 -6 10 30 20 78 20 54 0 137 -37 137 -62 0 -13 13 -24 38 -35 52 -22 67 -34 50 -44 -22 -14 -107 -10 -139 7 -25 13 -30 20 -27 47 2 26 -1 33 -23 41 -36 13 -59 2 -59 -29 0 -15 -6 -25 -14 -25 -8 0 -21 -3 -30 -6 -13 -5 -16 1 -16 29 l0 35 -41 -16 c-38 -15 -40 -17 -34 -48 4 -26 2 -35 -14 -43 -31 -17 -41 -13 -41 18 0 28 -1 29 -41 24 -48 -7 -105 18 -115 49 -3 11 -8 18 -10 15 -3 -2 0 -16 5 -30 12 -31 58 -57 99 -57 29 0 58 -21 45 -33 -14 -14 -89 -6 -120 13 -53 32 -57 116 -8 166 25 25 41 29 70 18z m872 -120 c3 -9 -7 -30 -24 -52 -29 -35 -34 -37 -109 -45 -88 -9 -135 3 -189 48 l-30 24 101 1 c80 0 111 4 145 20 53 24 97 26 106 4z m-544 -8 c4 -10 0 -12 -14 -9 -27 7 -34 23 -11 23 11 0 22 -6 25 -14z m-138 -5 c6 -11 -33 -36 -42 -27 -7 7 16 36 28 36 4 0 10 -4 14 -9z"/> <path d="M1178 1624 c-51 -12 -138 -49 -138 -58 0 -2 33 8 73 22 55 20 92 26 157 27 84 0 86 -1 168 -49 46 -27 85 -46 87 -44 3 3 -25 26 -62 51 -97 66 -170 79 -285 51z"/> <path d="M2190 1317 c-18 -9 -32 -33 -52 -87 -15 -41 -27 -85 -27 -97 -3 -83 100 -124 143 -58 20 31 41 111 51 193 l7 62 -49 0 c-26 0 -59 -6 -73 -13z m95 -64 c-9 -82 -28 -149 -51 -174 -21 -23 -61 -25 -86 -2 -24 22 -23 65 5 148 22 66 26 71 63 82 76 23 77 22 69 -54z"/> <path d="M2179 1199 c-14 -14 -19 -30 -17 -52 2 -26 8 -33 30 -35 44 -5 77 65 46 96 -17 17 -35 15 -59 -9z m51 -34 c0 -33 -28 -45 -46 -20 -16 22 -2 45 27 45 14 0 19 -7 19 -25z"/> <path d="M1452 1368 c-30 -5 -51 -12 -49 -14 5 -6 137 16 137 22 0 6 -26 3 -88 -8z"/> <path d="M1535 1330 c-16 -16 -27 -32 -24 -34 7 -6 68 -36 74 -36 16 0 1 22 -20 30 -30 11 -32 21 -5 38 20 12 27 32 12 32 -5 0 -21 -13 -37 -30z"/> <path d="M1140 1251 c0 -6 13 -11 28 -11 40 0 47 -11 20 -32 -16 -12 -18 -18 -8 -18 8 0 26 9 40 20 19 14 22 22 14 30 -16 16 -94 26 -94 11z"/> <path d="M1365 1247 c-17 -13 -17 -15 5 -30 l24 -16 -25 -10 c-15 -5 -29 -5 -37 2 -16 13 -27 3 -16 -15 5 -7 14 -28 19 -47 21 -70 64 -61 106 21 10 20 24 38 31 41 7 2 10 8 6 12 -4 4 -14 3 -21 -4 -8 -6 -22 -9 -31 -5 -18 7 -21 20 -6 29 6 3 10 13 10 21 0 18 -40 18 -65 1z m54 -66 c11 -7 10 -15 -8 -45 -26 -41 -46 -46 -55 -13 -9 36 -7 43 17 55 28 13 29 14 46 3z"/> <path d="M968 1164 c4 -22 8 -24 36 -18 38 8 46 12 46 25 0 5 -13 9 -30 9 -23 0 -28 -3 -23 -17 4 -11 3 -14 -5 -9 -7 4 -12 14 -12 22 0 8 -4 14 -9 14 -4 0 -6 -11 -3 -26z"/> <path d="M1110 980 c14 -9 119 -15 109 -6 -2 2 -31 6 -64 9 -39 4 -54 3 -45 -3z"/> <path d="M1365 980 l-60 -7 65 -1 c36 0 74 3 85 8 18 8 18 8 -5 8 -14 -1 -52 -4 -85 -8z"/> <path d="M1230 770 c-18 -43 -7 -47 13 -5 9 19 13 35 8 35 -5 0 -14 -14 -21 -30z"/> <path d="M1235 518 c-68 -34 -71 -36 -63 -44 8 -8 128 54 128 66 0 6 -1 10 -2 9 -2 -1 -30 -15 -63 -31z"/> <path d="M1530 360 c-21 -7 -21 -8 -5 -9 11 0 27 4 35 9 18 11 5 11 -30 0z"/> <path d="M571 482 c6 -18 15 -32 20 -32 16 0 10 26 -11 45 -20 18 -20 18 -9 -13z"/> <path d="M2788 199 c-10 -5 -23 -20 -29 -32 -9 -20 -9 -20 9 2 13 16 35 27 63 31 42 7 42 8 9 8 -19 1 -43 -3 -52 -9z"/> <path d="M2818 153 c6 -2 12 -9 12 -14 0 -6 -4 -7 -10 -4 -5 3 -10 1 -10 -4 0 -6 7 -11 15 -11 8 0 15 9 15 20 0 13 -6 20 -17 19 -11 0 -13 -3 -5 -6z"/> <path d="M2911 146 c0 -11 -9 -29 -18 -40 -17 -20 -16 -20 6 0 14 13 21 29 18 40 -4 18 -5 18 -6 0z"/> <path d="M2818 83 c12 -2 30 -2 40 0 9 3 -1 5 -23 4 -22 0 -30 -2 -17 -4z"/> </g> </svg>